<?xml version="1.0" standalone="no"?>
<!DOCTYPE svg PUBLIC "-//W3C//DTD SVG 20010904//EN"
 "http://www.w3.org/TR/2001/REC-SVG-20010904/DTD/svg10.dtd">
<svg version="1.0" xmlns="http://www.w3.org/2000/svg"
 width="776.000000pt" height="776.000000pt" viewBox="0 0 776.000000 776.000000"
 preserveAspectRatio="xMidYMid meet">
<metadata>
Created by potrace 1.14, written by Peter Selinger 2001-2017
</metadata>
<g transform="translate(0.000000,776.000000) scale(0.100000,-0.100000)"
fill="#000000" stroke="none">
<path d="M2126 5144 c-131 -46 -188 -190 -122 -310 102 -187 383 -130 403 82
15 157 -135 278 -281 228z"/>
<path d="M1551 4739 c-18 -4 -45 -15 -59 -26 -28 -21 -62 -85 -472 -888 -78
-154 -148 -286 -154 -292 -9 -10 -36 36 -115 190 -344 670 -482 938 -495 961
-17 29 -82 54 -129 50 -48 -5 -80 -24 -104 -61 -17 -25 -18 -77 -19 -755 -1
-668 0 -730 16 -766 21 -47 64 -70 129 -68 59 2 94 24 118 73 16 35 18 75 18
445 0 223 3 404 6 402 4 -2 43 -77 89 -166 72 -142 175 -343 312 -607 54 -106
83 -135 148 -146 43 -8 91 9 122 43 14 15 69 113 123 217 54 105 135 262 180
350 46 88 104 201 129 250 l46 90 -1 -620 c-2 -542 0 -625 14 -657 42 -100
199 -103 249 -6 18 33 19 85 20 954 1 817 -1 923 -15 956 -25 58 -91 91 -156
77z"/>
<path d="M4109 4736 c-2 -2 -31 -7 -64 -11 -180 -20 -463 -88 -630 -152 -180
-69 -398 -190 -518 -288 -170 -140 -292 -309 -332 -462 -20 -74 -26 -202 -13
-273 36 -201 194 -365 418 -438 61 -19 79 -24 155 -37 105 -18 322 3 408 39
21 8 37 13 37 11 0 -2 29 10 64 29 l65 33 3 -251 c3 -222 5 -254 21 -278 25
-37 74 -57 128 -54 57 4 92 27 115 74 16 34 18 75 19 452 1 228 -3 431 -8 450
-22 87 -123 128 -206 85 -33 -17 -51 -43 -76 -108 -38 -100 -148 -182 -288
-212 -89 -19 -238 -13 -310 13 -171 61 -263 178 -256 325 13 278 374 577 867
717 117 33 116 33 249 59 l92 18 16 -44 c37 -96 178 -111 244 -27 24 31 28
110 10 196 -21 94 -57 128 -149 133 -32 2 -59 2 -61 1z"/>
<path d="M6300 4714 c-19 -8 -37 -19 -40 -23 -3 -5 -50 -57 -105 -116 -105
-112 -129 -155 -114 -208 14 -51 70 -87 133 -87 46 0 97 38 201 150 102 111
112 124 119 167 8 45 -7 78 -51 107 -43 30 -90 33 -143 10z"/>
<path d="M6915 4697 c-29 -20 -82 -75 -231 -236 -32 -35 -98 -105 -145 -155
-143 -152 -159 -170 -170 -204 -16 -48 -4 -93 34 -130 46 -45 76 -48 200 -18
59 15 124 29 145 32 20 3 45 7 55 10 9 3 72 7 140 9 215 6 374 -44 468 -146
50 -54 68 -100 63 -162 -13 -147 -189 -289 -419 -338 -94 -20 -313 -15 -416
10 -133 31 -245 76 -348 138 -101 61 -137 69 -197 45 -29 -12 -65 -59 -71 -92
-14 -76 60 -148 239 -233 78 -37 248 -100 248 -92 0 2 11 0 25 -5 73 -28 204
-44 355 -43 439 1 794 229 856 550 36 191 -44 360 -226 478 -156 102 -336 147
-575 146 l-89 -1 40 42 c230 240 245 266 208 343 -21 45 -57 67 -113 70 -34 2
-54 -2 -76 -18z"/>
<path d="M4966 4680 c-37 -11 -83 -55 -105 -100 -17 -33 -94 -183 -256 -495
-443 -854 -435 -837 -437 -879 -4 -115 156 -166 239 -77 10 11 33 48 51 83
l34 63 501 0 c276 -1 508 -4 514 -8 7 -5 25 -32 39 -62 15 -29 42 -68 61 -87
31 -30 40 -33 91 -33 104 1 154 66 129 167 -6 23 -3 27 22 33 57 12 98 86 81
146 -19 65 -65 91 -167 94 -40 1 -75 4 -77 6 -4 5 -92 174 -225 432 -50 97
-132 257 -182 355 -51 97 -107 206 -127 242 -33 63 -84 120 -106 120 -6 0 -20
2 -31 5 -11 2 -33 0 -49 -5z m108 -562 c83 -161 205 -397 257 -496 22 -40 39
-78 39 -85 0 -9 -86 -12 -367 -11 -203 1 -372 2 -376 3 -5 0 5 25 21 54 16 28
80 151 142 272 182 355 203 395 210 395 4 0 37 -60 74 -132z"/>
<path d="M2122 4580 c-43 -10 -89 -54 -98 -94 -4 -17 -7 -313 -7 -657 0 -512
3 -631 14 -654 54 -111 248 -93 274 25 4 19 8 315 7 657 0 549 -2 625 -16 655
-27 57 -100 85 -174 68z"/>
</g>
</svg>
